<svg width="200" height="200" viewBox="0 0 200 200" fill="none" xmlns="http://www.w3.org/2000/svg">
<path d="M149.134 84.0615C151.293 87.8391 151.833 91.6167 151.293 95.934C149.674 103.489 143.738 108.886 136.182 109.965C125.389 111.045 116.755 102.95 116.755 92.1564C116.755 86.7598 119.453 83.5218 121.612 79.2046C124.31 73.2683 125.929 67.8717 126.469 61.3958C126.469 60.3165 126.469 59.2371 126.469 57.6182C126.469 38.1904 115.136 21.4609 97.8666 14.4454C97.3269 13.9057 96.2476 14.985 96.7873 15.5247C97.8666 18.7627 98.4063 22.0006 98.4063 25.2386C98.4063 34.9524 93.5493 42.5077 86.5337 48.444C78.9785 54.9199 71.4232 60.8561 64.4077 67.8717C57.3921 74.8873 49.8368 80.8235 44.9799 89.4581C39.5833 99.172 36.3454 109.965 36.3454 121.838C36.3454 146.662 50.9162 169.867 74.1216 180.121C85.4544 185.518 97.8666 187.137 110.279 184.978C135.643 181.2 157.229 160.693 162.626 135.329C164.784 126.155 164.245 116.441 162.086 107.267C161.007 102.95 159.928 98.6323 157.769 94.8547C153.991 91.0771 151.293 87.8391 149.134 84.0615Z" fill="#F49021"/>
<mask id="mask0_166_126" style="mask-type:luminance" maskUnits="userSpaceOnUse" x="36" y="14" width="128" height="172">
<path d="M149.134 84.0615C151.293 87.8391 151.833 91.6167 151.293 95.934C149.674 103.489 143.738 108.886 136.182 109.965C125.389 111.045 116.755 102.95 116.755 92.1564C116.755 86.7598 119.453 83.5218 121.612 79.2046C124.31 73.2683 125.929 67.8717 126.469 61.3958C126.469 60.3165 126.469 59.2371 126.469 57.6182C126.469 38.1904 115.136 21.4609 97.8666 14.4454C97.3269 13.9057 96.2476 14.985 96.7873 15.5247C97.8666 18.7627 98.4063 22.0006 98.4063 25.2386C98.4063 34.9524 93.5493 42.5077 86.5337 48.444C78.9785 54.9199 71.4232 60.8561 64.4077 67.8717C57.3921 74.8873 49.8368 80.8235 44.9799 89.4581C39.5833 99.172 36.3454 109.965 36.3454 121.838C36.3454 146.662 50.9162 169.867 74.1216 180.121C85.4544 185.518 97.8666 187.137 110.279 184.978C135.643 181.2 157.229 160.693 162.626 135.329C164.784 126.155 164.245 116.441 162.086 107.267C161.007 102.95 159.928 98.6323 157.769 94.8547C153.991 91.0771 151.293 87.8391 149.134 84.0615Z" fill="white"/>
</mask>
<g mask="url(#mask0_166_126)">
<path d="M117.834 85.1408C117.834 85.1408 55.773 130.472 94.0889 186.057L18.5365 181.74L19.0762 2.57283L124.85 3.11249C125.389 2.57283 150.214 68.4113 117.834 85.1408Z" fill="#F05A2B"/>
</g>
</svg>
